<svg width="170" height="40" viewBox="0 0 170 40" fill="none" xmlns="http://www.w3.org/2000/svg">
<path d="M30.6866 31.3682C30.6866 32.2694 29.956 33 29.0547 33H2.94527C2.04404 33 1.31343 32.2694 1.31343 31.3682V13.9302C1.31343 13.4305 1.54233 12.9584 1.93459 12.649L14.9894 2.35065C15.5819 1.88312 16.4181 1.88312 17.0106 2.35065L30.0653 12.649C30.4576 12.9584 30.6866 13.4305 30.6866 13.9302V31.3682ZM7.84079 18.3134C7.84079 22.8196 11.4938 26.4726 16 26.4726C20.5062 26.4726 24.1592 22.8196 24.1592 18.3134H20.8955C20.8955 21.0172 18.7038 23.209 16 23.209C13.2962 23.209 11.1045 21.0172 11.1045 18.3134H7.84079Z" fill="#3B1550"/>
<path d="M46 32.5447V5.98645H55.2199C57.0664 5.98645 58.66 6.28997 60.0006 6.89702C61.3665 7.47877 62.4289 8.33875 63.1878 9.47696C63.9466 10.6152 64.326 12.0063 64.326 13.6504C64.326 15.5474 63.8201 17.065 62.8083 18.2033C61.7966 19.3415 60.418 20.1256 58.6727 20.5556L66.0714 32.5447H60.3421L53.8161 21.3523H50.8566V32.5447H46ZM50.8566 17.2168H55.1061C56.2444 17.2168 57.117 17.065 57.7241 16.7615C58.3565 16.4327 58.7865 16.0027 59.0141 15.4715C59.2671 14.9404 59.3936 14.3333 59.3936 13.6504C59.3936 12.9675 59.2671 12.3604 59.0141 11.8293C58.7865 11.2981 58.3565 10.8808 57.7241 10.5772C57.117 10.2737 56.2444 10.122 55.1061 10.122H50.8566V17.2168Z" fill="#111111"/>
<path d="M75.5026 33C73.5296 33 71.8223 32.57 70.3805 31.71C68.9639 30.85 67.8636 29.6739 67.0795 28.1816C66.2954 26.6893 65.9033 25.0072 65.9033 23.1355C65.9033 21.1373 66.308 19.4047 67.1174 17.9377C67.9269 16.4706 69.0525 15.3324 70.4943 14.523C71.9361 13.6883 73.6055 13.271 75.5026 13.271C77.3744 13.271 79.006 13.6757 80.3972 14.4851C81.8137 15.2945 82.914 16.4074 83.6981 17.8238C84.5075 19.2403 84.9123 20.8717 84.9123 22.7182C84.9123 23.047 84.8996 23.3758 84.8743 23.7046C84.849 24.0081 84.8111 24.299 84.7605 24.5772H70.7978C70.8737 25.4625 71.1014 26.2466 71.4808 26.9295C71.8855 27.5872 72.4167 28.1057 73.0743 28.4851C73.7573 28.8392 74.5288 29.0163 75.3888 29.0163C76.2741 29.0163 77.033 28.8266 77.6653 28.4472C78.323 28.0677 78.8415 27.486 79.221 26.7019H84.419C84.0649 27.8148 83.4958 28.8519 82.7116 29.813C81.9275 30.7742 80.9283 31.5456 79.7142 32.1274C78.5254 32.7091 77.1215 33 75.5026 33ZM70.8358 21.3523H79.9039C79.8786 20.0876 79.4107 19.0885 78.5001 18.355C77.6147 17.6215 76.565 17.2547 75.3509 17.2547C74.3138 17.2547 73.3526 17.5836 72.4673 18.2412C71.582 18.8735 71.0381 19.9106 70.8358 21.3523Z" fill="#111111"/>
<path d="M95.1845 33C93.768 33 92.44 32.7471 91.2006 32.2412C89.9611 31.71 88.9367 30.9639 88.1273 30.0027C87.3431 29.0416 86.9131 27.916 86.8372 26.626H91.6938C91.8203 27.4354 92.2124 28.0678 92.87 28.523C93.553 28.9783 94.3118 29.206 95.1465 29.206C95.8548 29.206 96.5125 29.0542 97.1195 28.7507C97.7519 28.4219 98.0681 27.916 98.0681 27.2331C98.0681 26.7019 97.8404 26.2846 97.3851 25.981C96.9298 25.6775 96.3986 25.4372 95.7916 25.2602C95.1845 25.0831 94.628 24.9313 94.1221 24.8049C92.8574 24.5014 91.7065 24.1472 90.6694 23.7425C89.6323 23.3126 88.8102 22.7308 88.2031 21.9973C87.5961 21.2385 87.2925 20.2394 87.2925 19C87.2925 17.7859 87.634 16.7489 88.317 15.8889C89.0252 15.0289 89.9485 14.3839 91.0867 13.9539C92.2503 13.4986 93.5024 13.271 94.843 13.271C96.9425 13.271 98.7131 13.8022 100.155 14.8645C101.597 15.9268 102.381 17.495 102.507 19.5691H97.9163C97.8404 18.7597 97.499 18.1527 96.8919 17.748C96.3101 17.318 95.5766 17.103 94.6912 17.103C93.983 17.103 93.3506 17.2294 92.7941 17.4824C92.2377 17.7353 91.9594 18.2159 91.9594 18.9241C91.9594 19.43 92.1871 19.8473 92.6424 20.1762C93.0977 20.4797 93.6415 20.7326 94.2739 20.935C94.9062 21.112 95.4627 21.2638 95.9433 21.3902C97.2587 21.7191 98.4096 22.0985 99.3961 22.5285C100.408 22.9584 101.205 23.5402 101.786 24.2737C102.368 25.0072 102.672 25.9937 102.697 27.2331C102.697 28.4724 102.343 29.5221 101.635 30.3821C100.952 31.2421 100.041 31.8997 98.9028 32.355C97.7646 32.785 96.5251 33 95.1845 33Z" fill="#111111"/>
<path d="M108.071 11.2981C107.211 11.2981 106.465 10.9946 105.832 10.3875C105.225 9.75519 104.922 9.00903 104.922 8.14905C104.922 7.26378 105.225 6.51761 105.832 5.91057C106.465 5.30352 107.211 5 108.071 5C108.956 5 109.702 5.30352 110.309 5.91057C110.917 6.51761 111.22 7.26378 111.22 8.14905C111.22 9.00903 110.917 9.75519 110.309 10.3875C109.702 10.9946 108.956 11.2981 108.071 11.2981ZM105.643 32.5447V13.7263H110.499V32.5447H105.643Z" fill="#111111"/>
<path d="M122.169 33C120.347 33 118.779 32.5574 117.464 31.6721C116.174 30.7615 115.175 29.5601 114.466 28.0678C113.784 26.5501 113.442 24.8808 113.442 23.0596C113.442 21.2385 113.796 19.5944 114.504 18.1274C115.213 16.635 116.224 15.4589 117.54 14.5989C118.855 13.7136 120.398 13.271 122.169 13.271C123.383 13.271 124.534 13.5239 125.621 14.0298C126.734 14.5357 127.67 15.2692 128.429 16.2304V5.98645H133.324V32.5447H128.429V29.8509C127.797 30.888 126.911 31.6721 125.773 32.2033C124.635 32.7344 123.433 33 122.169 33ZM123.421 28.7507C124.433 28.7507 125.305 28.5104 126.039 28.0298C126.798 27.5492 127.392 26.8916 127.822 26.0569C128.252 25.1969 128.467 24.2231 128.467 23.1355C128.467 21.7949 128.202 20.72 127.67 19.9106C127.139 19.0759 126.481 18.4688 125.697 18.0894C124.913 17.71 124.142 17.5203 123.383 17.5203C122.396 17.5203 121.524 17.7606 120.765 18.2412C120.031 18.7218 119.45 19.3794 119.02 20.2141C118.59 21.0235 118.375 21.972 118.375 23.0596C118.375 24.122 118.59 25.0831 119.02 25.9431C119.45 26.8031 120.044 27.486 120.803 27.9919C121.562 28.4977 122.434 28.7507 123.421 28.7507Z" fill="#111111"/>
<path d="M145.907 33C144.01 33 142.316 32.5953 140.823 31.7859C139.356 30.9512 138.205 29.7877 137.37 28.2954C136.536 26.8031 136.118 25.0831 136.118 23.1355C136.118 21.0867 136.561 19.3288 137.446 17.8618C138.357 16.3695 139.558 15.2313 141.051 14.4472C142.569 13.6631 144.238 13.271 146.059 13.271C147.956 13.271 149.651 13.6883 151.143 14.523C152.636 15.3324 153.812 16.4706 154.672 17.9377C155.557 19.4047 156 21.1373 156 23.1355C156 25.0325 155.57 26.7272 154.71 28.2195C153.85 29.7118 152.661 30.888 151.143 31.748C149.651 32.5827 147.906 33 145.907 33ZM145.983 28.7886C146.995 28.7886 147.868 28.5357 148.601 28.0298C149.36 27.4986 149.955 26.8031 150.385 25.9431C150.815 25.0578 151.03 24.0967 151.03 23.0596C151.03 21.8708 150.789 20.8591 150.309 20.0244C149.853 19.1897 149.246 18.5574 148.487 18.1274C147.729 17.6974 146.894 17.4824 145.983 17.4824C144.997 17.4824 144.124 17.7227 143.365 18.2033C142.632 18.6838 142.05 19.3541 141.62 20.2141C141.215 21.0488 141.013 22.0226 141.013 23.1355C141.013 24.2484 141.228 25.2349 141.658 26.0949C142.113 26.9548 142.72 27.6251 143.479 28.1057C144.238 28.561 145.073 28.7886 145.983 28.7886Z" fill="#111111"/>
</svg>
