<svg width="24" height="24" viewBox="0 0 24 24" fill="none" xmlns="http://www.w3.org/2000/svg">
    <path d="M12.875 13.5H9.375C9.14294 13.5 8.92038 13.5922 8.75628 13.7563C8.59219 13.9204 8.5 14.1429 8.5 14.375C8.5 14.6071 8.59219 14.8296 8.75628 14.9937C8.92038 15.1578 9.14294 15.25 9.375 15.25H12.875C13.1071 15.25 13.3296 15.1578 13.4937 14.9937C13.6578 14.8296 13.75 14.6071 13.75 14.375C13.75 14.1429 13.6578 13.9204 13.4937 13.7563C13.3296 13.5922 13.1071 13.5 12.875 13.5ZM16.375 4.75H15.3425C15.162 4.23939 14.8279 3.79712 14.3862 3.48382C13.9444 3.17052 13.4166 3.00152 12.875 3H11.125C10.5834 3.00152 10.0556 3.17052 9.61382 3.48382C9.17206 3.79712 8.83802 4.23939 8.6575 4.75H7.625C6.92881 4.75 6.26113 5.02656 5.76884 5.51884C5.27656 6.01113 5 6.67881 5 7.375V17.875C5 18.5712 5.27656 19.2389 5.76884 19.7312C6.26113 20.2234 6.92881 20.5 7.625 20.5H16.375C17.0712 20.5 17.7389 20.2234 18.2312 19.7312C18.7234 19.2389 19 18.5712 19 17.875V7.375C19 6.67881 18.7234 6.01113 18.2312 5.51884C17.7389 5.02656 17.0712 4.75 16.375 4.75ZM10.25 5.625C10.25 5.39294 10.3422 5.17038 10.5063 5.00628C10.6704 4.84219 10.8929 4.75 11.125 4.75H12.875C13.1071 4.75 13.3296 4.84219 13.4937 5.00628C13.6578 5.17038 13.75 5.39294 13.75 5.625V6.5H10.25V5.625ZM17.25 17.875C17.25 18.1071 17.1578 18.3296 16.9937 18.4937C16.8296 18.6578 16.6071 18.75 16.375 18.75H7.625C7.39294 18.75 7.17038 18.6578 7.00628 18.4937C6.84219 18.3296 6.75 18.1071 6.75 17.875V7.375C6.75 7.14294 6.84219 6.92038 7.00628 6.75628C7.17038 6.59219 7.39294 6.5 7.625 6.5H8.5V7.375C8.5 7.60706 8.59219 7.82962 8.75628 7.99372C8.92038 8.15781 9.14294 8.25 9.375 8.25H14.625C14.8571 8.25 15.0796 8.15781 15.2437 7.99372C15.4078 7.82962 15.5 7.60706 15.5 7.375V6.5H16.375C16.6071 6.5 16.8296 6.59219 16.9937 6.75628C17.1578 6.92038 17.25 7.14294 17.25 7.375V17.875ZM14.625 10H9.375C9.14294 10 8.92038 10.0922 8.75628 10.2563C8.59219 10.4204 8.5 10.6429 8.5 10.875C8.5 11.1071 8.59219 11.3296 8.75628 11.4937C8.92038 11.6578 9.14294 11.75 9.375 11.75H14.625C14.8571 11.75 15.0796 11.6578 15.2437 11.4937C15.4078 11.3296 15.5 11.1071 15.5 10.875C15.5 10.6429 15.4078 10.4204 15.2437 10.2563C15.0796 10.0922 14.8571 10 14.625 10Z" fill="black"/>
</svg>
