<svg width="32" height="32" viewBox="0 0 32 32" fill="none" xmlns="http://www.w3.org/2000/svg">
<g clip-path="url(#clip0_13681_32800)">
<path d="M31.9993 14.9039C31.8751 15.1164 31.7852 15.3633 31.6188 15.5344C31.2634 15.9 30.8095 15.9993 30.3274 15.8211C29.8344 15.6391 29.5641 15.2641 29.5118 14.7407C29.4962 14.586 29.5048 14.4289 29.5048 14.2727C29.5048 12.0993 29.5048 9.92582 29.5048 7.75316C29.504 6.09379 28.4579 5.0477 26.7985 5.04613C26.3423 5.04613 25.886 5.04613 25.3852 5.04613C25.3852 5.4852 25.4009 5.90785 25.3821 6.32973C25.3391 7.30551 24.2946 7.86098 23.4782 7.34613C23.0985 7.10629 22.9071 6.74926 22.8962 6.30316C22.886 5.89926 22.8938 5.49457 22.8938 5.06879H17.2157C17.2157 5.38988 17.2157 5.70863 17.2157 6.02816C17.2157 6.96332 16.7469 7.5352 15.9766 7.54066C15.1946 7.54613 14.7212 6.96957 14.7212 6.01332C14.7212 5.70316 14.7212 5.39379 14.7212 5.06566H9.10632C9.10632 5.46566 9.11414 5.8766 9.10476 6.28754C9.09226 6.85238 8.76023 7.30863 8.25632 7.47426C7.4532 7.73988 6.64851 7.1766 6.61648 6.31566C6.60085 5.90316 6.61414 5.48988 6.61414 5.01488C5.8782 5.05082 5.16179 5.00785 4.4782 5.13676C3.36257 5.34691 2.62507 6.31879 2.56179 7.48832C2.5571 7.57113 2.55789 7.65473 2.55789 7.73754C2.55789 14.1016 2.55789 20.4649 2.55789 26.8289C2.55789 27.9102 2.9782 28.7625 3.97195 29.2297C4.35164 29.4078 4.81023 29.4899 5.23445 29.493C8.30085 29.5149 11.368 29.5063 14.4352 29.5024C14.8376 29.5024 15.1993 29.5891 15.4876 29.8821C16.0876 30.4914 15.9032 31.5063 15.129 31.8766C15.0368 31.9211 14.9415 31.9594 14.8477 32.0008H4.48992C4.45398 31.9828 4.4196 31.9539 4.38132 31.9493C2.03523 31.6641 0.0367925 29.5696 0.050855 26.8188C0.0828863 20.4571 0.0594488 14.0954 0.0656988 7.73441C0.0656988 7.34223 0.09148 6.94145 0.170386 6.55863C0.646949 4.22973 2.62117 2.60004 5.00164 2.55473C5.5282 2.54457 6.05554 2.55316 6.61336 2.55316C6.61336 2.10785 6.60085 1.69457 6.6157 1.28207C6.64773 0.421914 7.45242 -0.140585 8.25554 0.12504C8.75867 0.291446 9.0907 0.746914 9.1032 1.31176C9.11257 1.72191 9.10476 2.13285 9.10476 2.53441H14.7204C14.7204 2.14535 14.7173 1.77348 14.7204 1.4016C14.7274 0.612539 15.2477 0.0555083 15.9719 0.0586333C16.6946 0.060977 17.2079 0.618008 17.2149 1.4102C17.218 1.78129 17.2149 2.15238 17.2149 2.53285H22.8915C22.8915 2.1516 22.8899 1.78988 22.8915 1.42816C22.8969 0.615665 23.4134 0.0531645 24.1485 0.0586333C24.8712 0.064102 25.3805 0.621133 25.386 1.41566C25.3891 1.78598 25.386 2.15707 25.386 2.55629C26.0009 2.55629 26.5821 2.52973 27.1602 2.56098C29.1313 2.66879 30.5891 3.60863 31.4782 5.36645C31.7305 5.86488 31.829 6.44145 31.9985 6.98207V14.9063L31.9993 14.9039Z" fill="#013BA3"/>
<path d="M23.8278 32.0006C23.1059 31.8193 22.3614 31.7029 21.6676 31.4467C18.4489 30.2607 16.4051 26.6724 17.0075 23.2951C17.5411 20.3029 19.2489 18.2342 22.1239 17.2974C25.0684 16.3381 27.7051 17.0553 29.8957 19.2474C31.0856 20.4381 31.7418 21.9131 31.9442 23.5873C31.9536 23.6678 31.9809 23.7467 31.9996 23.8263V25.074C31.9786 25.174 31.9536 25.274 31.9379 25.3748C31.4723 28.3576 29.8442 30.4271 27.0317 31.5217C26.4114 31.7631 25.7293 31.8443 25.0754 31.999H23.8278V32.0006ZM24.4364 29.5037C27.2153 29.5131 29.4981 27.2404 29.5028 24.4584C29.5075 21.6896 27.2536 19.4185 24.4817 19.3982C21.7043 19.3787 19.4145 21.6443 19.3996 24.4287C19.3848 27.2076 21.6543 29.4943 24.4364 29.5045V29.5037Z" fill="#013BA3"/>
<path d="M9.10397 13.1543C9.10553 13.8403 8.53991 14.4059 7.85397 14.4036C7.16803 14.4012 6.60632 13.8317 6.61335 13.1458C6.62038 12.4723 7.17428 11.9184 7.84772 11.9122C8.53366 11.9059 9.10241 12.4684 9.10397 13.1543Z" fill="#013BA3"/>
<path d="M14.5319 13.1691C14.5257 13.8551 13.953 14.4137 13.2671 14.4035C12.5812 14.3926 12.0265 13.8168 12.0413 13.1309C12.0562 12.4574 12.6171 11.9106 13.2905 11.9121C13.9765 11.9145 14.5382 12.4832 14.5319 13.1691Z" fill="#013BA3"/>
<path d="M18.7188 11.9121C19.4047 11.9145 19.9664 12.484 19.9594 13.1699C19.9523 13.8559 19.3789 14.4145 18.6938 14.4027C18.0203 14.3918 17.4703 13.834 17.4688 13.1606C17.4672 12.4746 18.0328 11.909 18.7188 11.9121Z" fill="#013BA3"/>
<path d="M25.3852 13.1451C25.3922 13.831 24.8305 14.4005 24.1445 14.4029C23.4586 14.4052 22.893 13.8404 22.8945 13.1545C22.8961 12.4802 23.4461 11.9232 24.1195 11.9123C24.8047 11.9013 25.3781 12.4599 25.3852 13.1459V13.1451Z" fill="#013BA3"/>
<path d="M9.10399 18.5852C9.10399 19.2711 8.53758 19.8352 7.85164 19.8313C7.16571 19.8274 6.60555 19.2563 6.61336 18.5703C6.62117 17.8969 7.17664 17.3446 7.85008 17.3399C8.53602 17.3352 9.10321 17.8985 9.10399 18.5852Z" fill="#013BA3"/>
<path d="M14.532 18.5977C14.5249 19.2836 13.9515 19.8422 13.2663 19.8305C12.5804 19.8195 12.0257 19.2422 12.0413 18.557C12.0562 17.8836 12.6179 17.3367 13.2913 17.3399C13.9773 17.3422 14.539 17.9117 14.532 18.5977Z" fill="#013BA3"/>
<path d="M9.10411 24.0215C9.09943 24.7074 8.52833 25.2676 7.84318 25.259C7.15724 25.2504 6.60099 24.6754 6.61349 23.9895C6.62599 23.316 7.18536 22.7676 7.85958 22.7676C8.54552 22.7676 9.1088 23.3355 9.10489 24.0215H9.10411Z" fill="#013BA3"/>
<path d="M13.2809 25.2591C12.595 25.256 12.0333 24.6865 12.0411 24.0005C12.0481 23.3146 12.6216 22.7568 13.3075 22.7677C13.9809 22.7787 14.5309 23.3373 14.5317 24.0107C14.5333 24.6966 13.9669 25.2615 13.2809 25.2591Z" fill="#013BA3"/>
<path d="M25.6983 23.2066C25.9421 23.2066 26.1397 23.1957 26.3351 23.209C27.0077 23.2543 27.5163 23.8043 27.5077 24.4676C27.4991 25.1176 26.9944 25.6645 26.3327 25.6887C25.6796 25.7129 25.0241 25.7137 24.3718 25.6871C23.7351 25.6621 23.2327 25.1566 23.2163 24.5176C23.1937 23.6254 23.1937 22.7316 23.2155 21.8395C23.2319 21.1621 23.7882 20.6488 24.4515 20.6465C25.1265 20.6449 25.6726 21.1691 25.6976 21.8637C25.7132 22.2973 25.7007 22.7316 25.7007 23.2066H25.6983Z" fill="#013BA3"/>
</g>
<defs>
<clipPath id="clip0_13681_32800">
<rect width="32" height="32" fill="white"/>
</clipPath>
</defs>
</svg>
