<svg width="24" height="24" viewBox="0 0 24 24" fill="none" xmlns="http://www.w3.org/2000/svg">
<path d="M16.7511 5.05539L16.2208 4.52505L16.2208 4.52507L16.7511 5.05539ZM19.0875 5.05539L19.6178 4.52509L19.6178 4.52505L19.0875 5.05539ZM19.0875 7.39166L19.6178 7.922L19.6178 7.92196L19.0875 7.39166ZM11.2215 10.5851L10.6911 10.0548L10.6911 10.0548L11.2215 10.5851ZM9.61826 12.4224L10.273 12.7883L10.273 12.7883L9.61826 12.4224ZM8.73796 15.4049L8.00835 15.2312C7.94803 15.4845 8.02346 15.751 8.20763 15.9352C8.39179 16.1194 8.65831 16.1948 8.91167 16.1345L8.73796 15.4049ZM13.5577 12.9214L13.0274 12.391L13.0274 12.391L13.5577 12.9214ZM20.3213 12.0715C20.3213 11.6573 19.9855 11.3215 19.5713 11.3215C19.1571 11.3215 18.8213 11.6573 18.8213 12.0715H20.3213ZM12.0713 5.32153C12.4855 5.32153 12.8213 4.98575 12.8213 4.57153C12.8213 4.15732 12.4855 3.82153 12.0713 3.82153V5.32153ZM15.583 6.22352L16.1134 6.75384L17.2815 5.58571L16.7511 5.05539L16.2208 4.52507L15.0527 5.69321L15.583 6.22352ZM16.7511 5.05539L17.2814 5.58573C17.6337 5.23347 18.2049 5.23347 18.5571 5.58573L19.0875 5.05539L19.6178 4.52505C18.6797 3.58703 17.1589 3.58703 16.2208 4.52505L16.7511 5.05539ZM19.0875 5.05539L18.5571 5.5857C18.9093 5.93795 18.9093 6.5091 18.5571 6.86135L19.0875 7.39166L19.6178 7.92196C20.5558 6.98393 20.5558 5.46311 19.6178 4.52509L19.0875 5.05539ZM19.0875 7.39166L18.5571 6.86132L17.389 8.02945L17.9193 8.55979L18.4496 9.09013L19.6178 7.922L19.0875 7.39166ZM15.583 6.22352L15.0527 5.6932L10.6911 10.0548L11.2215 10.5851L11.7518 11.1154L16.1134 6.75385L15.583 6.22352ZM11.2215 10.5851L10.6911 10.0548C9.8489 10.897 9.32256 11.4141 8.96355 12.0566L9.61826 12.4224L10.273 12.7883C10.5071 12.3693 10.8519 12.0154 11.7518 11.1154L11.2215 10.5851ZM9.61826 12.4224L8.96355 12.0566C8.76609 12.41 8.59743 12.9372 8.45135 13.4622C8.29948 14.008 8.15016 14.6355 8.00835 15.2312L8.73796 15.4049L9.46756 15.5786C9.61108 14.9758 9.75363 14.3775 9.89644 13.8644C10.045 13.3304 10.1739 12.9657 10.273 12.7883L9.61826 12.4224ZM8.73796 15.4049L8.91167 16.1345C9.50728 15.9927 10.1349 15.8433 10.6806 15.6915C11.2056 15.5454 11.7329 15.3767 12.0862 15.1792L11.7204 14.5245L11.3545 13.8698C11.1771 13.9689 10.8124 14.0978 10.2785 14.2464C9.76529 14.3892 9.16704 14.5317 8.56424 14.6753L8.73796 15.4049ZM11.7204 14.5245L12.0862 15.1792C12.7287 14.8202 13.2458 14.294 14.088 13.4517L13.5577 12.9214L13.0274 12.391C12.1275 13.2909 11.7735 13.6357 11.3545 13.8698L11.7204 14.5245ZM13.5577 12.9214L14.088 13.4517L18.4496 9.09012L17.9193 8.55979L17.389 8.02946L13.0274 12.391L13.5577 12.9214ZM15.583 6.22352L15.0527 6.75385L17.389 9.09012L17.9193 8.55979L18.4496 8.02946L16.1134 5.6932L15.583 6.22352ZM19.5713 12.0715H18.8213C18.8213 13.8605 18.8197 15.1268 18.6907 16.0864C18.5646 17.0244 18.3292 17.5563 17.9426 17.9429L18.473 18.4732L19.0033 19.0035C19.715 18.2918 20.0288 17.3906 20.1773 16.2862C20.3229 15.2035 20.3213 13.8181 20.3213 12.0715H19.5713ZM18.473 18.4732L17.9426 17.9429C17.556 18.3295 17.0242 18.5648 16.0861 18.6909C15.1265 18.8199 13.8602 18.8215 12.0713 18.8215V19.5715V20.3215C13.8178 20.3215 15.2032 20.3231 16.286 20.1776C17.3903 20.0291 18.2915 19.7153 19.0033 19.0035L18.473 18.4732ZM12.0713 19.5715V18.8215C10.2823 18.8215 9.01604 18.8199 8.05645 18.6909C7.11844 18.5648 6.58656 18.3295 6.19997 17.9429L5.66964 18.4732L5.13931 19.0035C5.85106 19.7153 6.75224 20.0291 7.85659 20.1776C8.93935 20.3231 10.3247 20.3215 12.0713 20.3215V19.5715ZM5.66964 18.4732L6.19997 17.9429C5.81337 17.5563 5.57801 17.0244 5.45189 16.0864C5.32288 15.1268 5.32129 13.8605 5.32129 12.0715H4.57129H3.82129C3.82129 13.8181 3.8197 15.2035 3.96527 16.2862C4.11374 17.3906 4.42755 18.2918 5.13931 19.0035L5.66964 18.4732ZM4.57129 12.0715H5.32129C5.32129 10.2826 5.32288 9.01629 5.45189 8.0567C5.57801 7.11869 5.81337 6.58681 6.19997 6.20021L5.66964 5.66988L5.13931 5.13955C4.42756 5.8513 4.11375 6.75249 3.96527 7.85683C3.8197 8.9396 3.82129 10.325 3.82129 12.0715H4.57129ZM5.66964 5.66988L6.19997 6.20021C6.58657 5.81361 7.11845 5.57825 8.05646 5.45214C9.01604 5.32313 10.2823 5.32153 12.0713 5.32153V4.57153V3.82153C10.3247 3.82153 8.93935 3.81994 7.85658 3.96551C6.75224 4.11399 5.85106 4.4278 5.13931 5.13955L5.66964 5.66988Z" fill="#1E1B39"/>
</svg>
