<svg width="24" height="24" viewBox="0 0 24 24" fill="none" xmlns="http://www.w3.org/2000/svg">
<path d="M11.3924 14.0127V15.8608C8.33038 15.8608 5.84811 18.3431 5.84811 21.4051H4C4 17.3224 7.3097 14.0127 11.3924 14.0127ZM11.3924 13.0886C8.32919 13.0886 5.84811 10.6076 5.84811 7.54432C5.84811 4.48108 8.32919 2 11.3924 2C14.4557 2 16.9368 4.48108 16.9368 7.54432C16.9368 10.6076 14.4557 13.0886 11.3924 13.0886ZM11.3924 11.2405C13.4346 11.2405 15.0886 9.58648 15.0886 7.54432C15.0886 5.50216 13.4346 3.84811 11.3924 3.84811C9.35027 3.84811 7.69621 5.50216 7.69621 7.54432C7.69621 9.58648 9.35027 11.2405 11.3924 11.2405ZM13.79 18.4588C13.7328 18.2182 13.7026 17.9671 13.7026 17.7089C13.7026 17.4508 13.7328 17.1998 13.7899 16.9591L12.8736 16.4301L13.7976 14.8296L14.7146 15.359C15.0778 15.0154 15.5207 14.7551 16.0127 14.6086V13.5507H17.8608V14.6086C18.3528 14.7551 18.7956 15.0154 19.1588 15.359L20.0759 14.8295L21 16.43L20.0836 16.959C20.1407 17.1998 20.1709 17.4508 20.1709 17.7089C20.1709 17.967 20.1407 18.2181 20.0836 18.4587L21 18.9877L20.0759 20.5883L19.1589 20.0588C18.7957 20.4024 18.3529 20.6627 17.8609 20.8091V21.8672H16.0128V20.8092C15.5208 20.6628 15.0779 20.4025 14.7147 20.0589L13.7977 20.5884L12.8736 18.9878L13.79 18.4588ZM16.9368 19.095C17.7022 19.095 18.3228 18.4744 18.3228 17.7089C18.3228 16.9434 17.7022 16.3228 16.9368 16.3228C16.1713 16.3228 15.5507 16.9434 15.5507 17.7089C15.5507 18.4744 16.1713 19.095 16.9368 19.095Z" fill="black"/>
</svg>
