<svg width="42" height="44" viewBox="0 0 42 44" fill="none" xmlns="http://www.w3.org/2000/svg">
<path d="M18.1579 33C18.9121 33.5892 19.9082 33.9474 21 33.9474C22.0918 33.9474 23.0879 33.5892 23.8421 33M12.0283 26.7417C11.8269 28.0236 12.7276 28.9132 13.8304 29.3566C18.0582 31.0566 23.9418 31.0566 28.1696 29.3566C29.2724 28.9132 30.1731 28.0236 29.9717 26.7417C29.8478 25.9539 29.2357 25.298 28.7821 24.6575C28.188 23.8082 28.1289 22.8818 28.1288 21.8963C28.1288 18.0876 24.9372 15 21 15C17.0629 15 13.8712 18.0876 13.8712 21.8963C13.8711 22.8818 13.8121 23.8082 13.2179 24.6575C12.7644 25.298 12.1522 25.9539 12.0283 26.7417Z" stroke="#111111" stroke-width="2" stroke-linecap="round" stroke-linejoin="round"/>
<rect x="21" y="1.84473" width="20" height="20" rx="10" fill="#FFA500"/>
<rect x="21" y="1.84473" width="20" height="20" rx="10" stroke="white" stroke-width="2"/>
<path d="M28.8501 8.14473V15.8447H27.4201V9.34373H25.7921V8.14473H28.8501ZM35.9546 14.6347V15.8447H30.2786V14.8877L33.3366 11.9837C33.6812 11.6537 33.9122 11.3677 34.0296 11.1257C34.1542 10.8764 34.2166 10.6307 34.2166 10.3887C34.2166 10.0294 34.0956 9.75439 33.8536 9.56373C33.6116 9.37306 33.2559 9.27773 32.7866 9.27773C32.0019 9.27773 31.4006 9.54539 30.9826 10.0807L29.9816 9.31073C30.2822 8.90739 30.6856 8.59573 31.1916 8.37573C31.7049 8.14839 32.2769 8.03473 32.9076 8.03473C33.7436 8.03473 34.4109 8.23273 34.9096 8.62873C35.4082 9.02473 35.6576 9.56373 35.6576 10.2457C35.6576 10.6637 35.5696 11.0561 35.3936 11.4227C35.2176 11.7894 34.8802 12.2074 34.3816 12.6767L32.3246 14.6347H35.9546Z" fill="white"/>
</svg>
