<svg width="24" height="24" viewBox="0 0 24 24" fill="none" xmlns="http://www.w3.org/2000/svg">
    <path d="M12 3L15.3326 7.87622L21 9.53888L17.3922 14.2152L17.5623 20.119L12 18.1329L6.43769 20.119L6.60774 14.2152L3 9.53888L8.66739 7.87622L12 3ZM12 5.79479L9.65177 9.2311L5.65732 10.4026L8.20049 13.6977L8.07989 17.8572L12 16.4582L15.9193 17.8572L15.7995 13.6977L18.3419 10.4026L14.3482 9.2311L12 5.79479ZM10.4228 12.0689C10.4228 12.9399 11.1289 13.6461 12 13.6461C12.8711 13.6461 13.5772 12.9399 13.5772 12.0689H15.1544C15.1544 13.8109 13.7422 15.2232 12 15.2232C10.2579 15.2232 8.84561 13.8109 8.84561 12.0689H10.4228Z" fill="black"/>
</svg>
