<svg width="30" height="40" viewBox="0 0 30 40" fill="none" xmlns="http://www.w3.org/2000/svg">
<g clip-path="url(#clip0_6746_11509)">
<path d="M29.9999 20.2635C29.9999 25.8156 29.9999 28.3677 29.9999 33.9183C29.9999 35.0244 29.475 35.744 28.5189 35.8406C28.1483 35.8781 27.7272 35.7772 27.3825 35.6229C26.4466 35.2032 25.5482 34.7028 24.6151 34.2759C24.4104 34.1822 24.0917 34.1779 23.8898 34.2716C22.8615 34.7475 21.8477 35.258 20.8397 35.7786C20.0235 36.1997 19.2275 36.204 18.4112 35.7829C17.4191 35.271 16.4096 34.7951 15.4232 34.2731C15.1146 34.1101 14.8795 34.1245 14.5796 34.2817C13.671 34.759 12.7294 35.1729 11.8338 35.6705C10.8416 36.2213 9.90428 36.2098 8.91644 35.6546C8.00647 35.1441 7.06046 34.697 6.11444 34.2572C5.92552 34.1692 5.62701 34.175 5.43665 34.263C4.49064 34.7028 3.56913 35.196 2.62888 35.6517C1.29062 36.3006 0.00714716 35.5133 0.00570506 34.0337C-6.33411e-05 22.8617 -0.00294754 14.6855 0.00570506 3.51062C0.00714716 1.48591 1.52712 0.0192981 3.61528 0.0077613C6.44612 -0.0066597 9.27696 0.003435 12.1064 0.003435C16.848 0.003435 21.5896 -0.000891298 26.3312 0.0048771C28.1584 0.0077613 29.5226 1.03165 29.9062 2.69584C29.9942 3.07655 29.9956 3.48178 29.9956 3.87691C30.0014 9.33815 29.9999 14.8008 29.9985 20.2621L29.9999 20.2635ZM27.7012 33.2189V32.5671C27.7012 22.0022 27.7012 14.4389 27.7012 3.87403C27.7012 2.68141 27.3508 2.32954 26.1539 2.32954C18.7256 2.32954 11.2959 2.32954 3.86765 2.32954C2.6534 2.32954 2.30297 2.68574 2.30297 3.91874C2.30297 14.4648 2.30297 22.0109 2.30297 32.557V33.2189C3.11631 32.818 3.84602 32.4776 4.55697 32.1027C5.3732 31.673 6.1678 31.6773 6.98403 32.0955C7.97763 32.6045 8.98854 33.079 9.97783 33.5982C10.2864 33.7611 10.5229 33.751 10.8272 33.5909C11.7992 33.0804 12.7957 32.6175 13.7677 32.107C14.5839 31.6787 15.377 31.673 16.1947 32.0912C17.1883 32.5988 18.1992 33.0747 19.1885 33.5924C19.4928 33.7525 19.7307 33.7626 20.0379 33.601C20.994 33.0977 21.9775 32.6449 22.9308 32.1373C23.8191 31.6629 24.6771 31.6744 25.5583 32.1431C26.2375 32.505 26.9326 32.8338 27.7041 33.2189H27.7012Z" fill="#3B1550"/>
<path d="M18.4632 17.31C19.9587 17.31 21.4556 17.2956 22.951 17.3143C23.9446 17.3273 24.5229 18.1954 24.1033 18.9987C23.8812 19.4241 23.5034 19.626 23.0419 19.6274C19.9962 19.6361 16.949 19.6404 13.9033 19.6246C13.1952 19.6202 12.7092 19.1198 12.6977 18.4896C12.6862 17.8378 13.1837 17.3273 13.9206 17.3172C15.4348 17.297 16.949 17.3114 18.4632 17.31Z" fill="#3B1550"/>
<path d="M18.4588 24.2369C16.9994 24.2369 15.5386 24.2413 14.0792 24.2369C13.2197 24.234 12.6789 23.7711 12.6962 23.0703C12.7121 22.3809 13.2384 21.9411 14.0676 21.9397C17.0052 21.9368 19.9428 21.9368 22.8803 21.9397C23.698 21.9397 24.2301 22.3968 24.2344 23.0847C24.2388 23.7769 23.7182 24.2312 22.8919 24.234C21.4137 24.2413 19.9355 24.2355 18.4588 24.2355V24.2369Z" fill="#3B1550"/>
<path d="M18.495 26.5605C19.9544 26.5605 21.4138 26.5562 22.8747 26.5619C23.7197 26.5648 24.2274 26.996 24.236 27.6925C24.2432 28.3992 23.7039 28.8577 22.8487 28.8577C19.8938 28.8606 16.9375 28.8577 13.9827 28.8592C13.4231 28.8592 12.9934 28.6458 12.7857 28.1122C12.5968 27.6262 12.6934 27.1489 13.1145 26.8518C13.3712 26.6701 13.7418 26.5778 14.0634 26.572C15.5401 26.5432 17.0183 26.559 18.4965 26.559L18.495 26.5605Z" fill="#3B1550"/>
<path d="M19.6154 8.08843C19.6154 7.66301 19.5995 7.31979 19.6182 6.97945C19.6586 6.25984 20.1114 5.80126 20.7633 5.79693C21.418 5.79116 21.8823 6.24254 21.9299 6.95782C21.953 7.31258 21.9342 7.67022 21.9342 8.08843C22.3395 8.08843 22.6942 8.07689 23.049 8.09131C23.7383 8.11727 24.233 8.6047 24.2344 9.24066C24.2344 9.87951 23.7484 10.354 23.049 10.3814C22.7101 10.3943 22.3698 10.3842 21.9371 10.3842C21.9371 10.7404 21.9443 11.0548 21.9371 11.3706C21.9169 12.184 21.4439 12.7147 20.7589 12.7031C20.0912 12.6916 19.637 12.1753 19.6154 11.3908C19.6067 11.0866 19.6154 10.7823 19.6154 10.3857C19.226 10.3857 18.8741 10.3958 18.5237 10.3842C17.8142 10.3597 17.3311 9.90403 17.3195 9.2623C17.308 8.6047 17.8142 8.11294 18.5367 8.09131C18.8741 8.08122 19.213 8.08987 19.6182 8.08987L19.6154 8.08843Z" fill="#3B1550"/>
<path d="M10.445 10.3856C11.5079 10.3856 12.5693 10.3799 13.6321 10.3871C14.4613 10.3928 14.9862 10.8384 15.0035 11.5234C15.0208 12.2257 14.4772 12.706 13.6263 12.7089C11.4661 12.7161 9.30579 12.7161 7.14552 12.7089C6.31776 12.706 5.79139 12.2575 5.77408 11.571C5.75678 10.8673 6.29901 10.3928 7.15129 10.3871C8.24873 10.3784 9.34761 10.3856 10.4465 10.3856H10.445Z" fill="#3B1550"/>
<path d="M9.28138 5.79188C9.98513 5.79188 10.6874 5.78467 11.3912 5.79332C12.2002 5.80342 12.6775 6.23172 12.6804 6.9297C12.6833 7.62479 12.1901 8.08338 11.4042 8.0877C9.96206 8.09491 8.51851 8.09491 7.07641 8.0877C6.29768 8.08338 5.77852 7.61902 5.77131 6.94412C5.7641 6.27643 6.2847 5.80486 7.06199 5.79476C7.80179 5.78467 8.54015 5.79332 9.27994 5.79188H9.28138Z" fill="#3B1550"/>
<path d="M8.08447 17.3203C8.4623 17.3203 8.84301 17.3001 9.2194 17.3246C9.92458 17.3708 10.3947 17.8553 10.3846 18.4956C10.3745 19.1172 9.9217 19.5974 9.23959 19.6277C8.46662 19.6608 7.68933 19.6623 6.91636 19.6277C6.24435 19.5974 5.77999 19.0999 5.77422 18.4884C5.76845 17.8568 6.24867 17.3679 6.95097 17.3246C7.32736 17.3016 7.70663 17.3203 8.08591 17.3203H8.08447Z" fill="#3B1550"/>
<path d="M8.06136 24.2277C7.64748 24.2277 7.23215 24.2508 6.81971 24.2219C6.22557 24.1801 5.78573 23.6941 5.77275 23.1144C5.75977 22.5419 6.18807 21.9953 6.77501 21.9636C7.63738 21.9189 8.50408 21.9189 9.36646 21.9607C9.95484 21.9881 10.386 22.5231 10.3846 23.0971C10.3817 23.697 9.92744 24.1873 9.30301 24.2248C8.89057 24.2493 8.47524 24.2291 8.06136 24.2291V24.2262V24.2277Z" fill="#3B1550"/>
<path d="M8.07867 26.5709C8.49255 26.5709 8.90787 26.5493 9.32031 26.5753C9.92311 26.6142 10.363 27.0815 10.3846 27.6641C10.4062 28.2582 9.96493 28.8105 9.35204 28.8408C8.50841 28.8812 7.65901 28.8812 6.81394 28.8408C6.19961 28.812 5.75256 28.2611 5.77419 27.6684C5.79582 27.0872 6.2371 26.6157 6.83702 26.5767C7.24946 26.5493 7.66478 26.5709 8.07867 26.5709Z" fill="#3B1550"/>
</g>
<defs>
<clipPath id="clip0_6746_11509">
<rect width="30" height="39.0968" fill="white"/>
</clipPath>
</defs>
</svg>
