<svg width="24" height="24" viewBox="0 0 24 24" fill="none" xmlns="http://www.w3.org/2000/svg">
    <path d="M5.65256 4.52165L12.5 3L19.3474 4.52165C19.7287 4.60638 20 4.94456 20 5.33514V13.6574C20 15.3292 19.1645 16.8903 17.7735 17.8177L12.5 21.3333L7.2265 17.8177C5.83551 16.8903 5 15.3292 5 13.6574V5.33514C5 4.94456 5.27128 4.60638 5.65256 4.52165ZM6.66667 6.00362V13.6574C6.66667 14.7719 7.22367 15.8127 8.151 16.4309L12.5 19.3303L16.849 16.4309C17.7763 15.8127 18.3333 14.7719 18.3333 13.6574V6.00362L12.5 4.70733L6.66667 6.00362ZM12.5 11.3333C11.3494 11.3333 10.4167 10.4006 10.4167 9.25C10.4167 8.09941 11.3494 7.16667 12.5 7.16667C13.6506 7.16667 14.5833 8.09941 14.5833 9.25C14.5833 10.4006 13.6506 11.3333 12.5 11.3333ZM8.77288 15.5C8.98016 13.625 10.5698 12.1667 12.5 12.1667C14.4303 12.1667 16.0198 13.625 16.2271 15.5H8.77288Z" fill="black"/>
</svg>
