<svg width="24" height="24" viewBox="0 0 24 24" fill="none" xmlns="http://www.w3.org/2000/svg">
    <path d="M15 5.66667H6.66667V19H18.3333V9H15V5.66667ZM5 4.8265C5 4.37004 5.37291 4 5.83208 4H15.8333L19.9998 8.16667L20 19.8271C20 20.2908 19.6292 20.6667 19.1722 20.6667H5.82783C5.37063 20.6667 5 20.2872 5 19.8402V4.8265ZM12.5 11.9167C11.3494 11.9167 10.4167 10.9839 10.4167 9.83333C10.4167 8.68274 11.3494 7.75 12.5 7.75C13.6506 7.75 14.5833 8.68274 14.5833 9.83333C14.5833 10.9839 13.6506 11.9167 12.5 11.9167ZM8.77288 16.5C8.98016 14.625 10.5698 13.1667 12.5 13.1667C14.4303 13.1667 16.0198 14.625 16.2271 16.5H8.77288Z" fill="black"/>
</svg>
