<svg width="24" height="24" viewBox="0 0 24 24" fill="none" xmlns="http://www.w3.org/2000/svg">
    <path d="M8.33333 10.6667H19.1667C19.6269 10.6667 20 11.0398 20 11.5V19.8333C20 20.2936 19.6269 20.6667 19.1667 20.6667H5.83333C5.3731 20.6667 5 20.2936 5 19.8333V11.5C5 11.0398 5.3731 10.6667 5.83333 10.6667H6.66667V9.83333C6.66667 6.61168 9.27834 4 12.5 4C14.7837 4 16.7609 5.31233 17.7187 7.22402L16.2276 7.96953C15.5435 6.60405 14.1312 5.66667 12.5 5.66667C10.1988 5.66667 8.33333 7.53215 8.33333 9.83333V10.6667ZM6.66667 12.3333V19H18.3333V12.3333H6.66667ZM10.8333 14.8333H14.1667V16.5H10.8333V14.8333Z" fill="#333333"/>
</svg>
