<svg width="24" height="24" viewBox="0 0 24 24" fill="none" xmlns="http://www.w3.org/2000/svg">
<path d="M11.813 18.7995L16.2128 14.3997C18.6427 11.9699 18.6427 8.03014 16.2128 5.60022C13.7829 3.17029 9.84319 3.17029 7.41327 5.60022C4.98334 8.03014 4.98334 11.9699 7.41327 14.3997L11.813 18.7995ZM11.813 21.3137L6.15619 15.6569C3.032 12.5326 3.032 7.46733 6.15619 4.34314C9.28038 1.21895 14.3457 1.21895 17.4699 4.34314C20.5941 7.46733 20.5941 12.5326 17.4699 15.6569L11.813 21.3137ZM11.813 11.7778C12.7949 11.7778 13.5908 10.9819 13.5908 9.99999C13.5908 9.01815 12.7949 8.22221 11.813 8.22221C10.8312 8.22221 10.0353 9.01815 10.0353 9.99999C10.0353 10.9819 10.8312 11.7778 11.813 11.7778ZM11.813 13.5555C9.84936 13.5555 8.25749 11.9636 8.25749 9.99999C8.25749 8.03631 9.84936 6.44444 11.813 6.44444C13.7767 6.44444 15.3686 8.03631 15.3686 9.99999C15.3686 11.9636 13.7767 13.5555 11.813 13.5555Z" fill="#3B1550"/>
</svg>
