<svg width="24" height="24" viewBox="0 0 24 24" fill="none" xmlns="http://www.w3.org/2000/svg">
    <path d="M3 11.6746C3 10.8966 3.09873 10.1416 3.28435 9.42148C4.2656 9.47235 5.23963 8.98394 5.76462 8.07464C6.2892 7.16603 6.22565 6.07924 5.69209 5.25511C6.76519 4.20056 8.10149 3.413 9.59343 3C10.04 3.87527 10.95 4.47464 12 4.47464C13.05 4.47464 13.96 3.87527 14.4066 3C15.8985 3.413 17.2348 4.20056 18.3079 5.25511C17.7743 6.07924 17.7108 7.16603 18.2354 8.07464C18.7603 8.98394 19.7344 9.47235 20.7157 9.42148C20.9013 10.1416 21 10.8966 21 11.6746C21 12.4527 20.9013 13.2077 20.7157 13.9278C19.7344 13.8769 18.7603 14.3654 18.2354 15.2746C17.7108 16.1833 17.7743 17.27 18.3079 18.0941C17.2348 19.1487 15.8985 19.9363 14.4066 20.3493C13.96 19.474 13.05 18.8746 12 18.8746C10.95 18.8746 10.04 19.474 9.59343 20.3493C8.10149 19.9363 6.76519 19.1487 5.69209 18.0941C6.22565 17.27 6.2892 16.1833 5.76462 15.2746C5.23963 14.3654 4.2656 13.8769 3.28435 13.9278C3.09873 13.2077 3 12.4527 3 11.6746ZM7.32346 14.3746C7.89055 15.3569 8.05312 16.4861 7.83136 17.546C8.19837 17.8072 8.58905 18.0335 8.9984 18.2215C9.80558 17.4989 10.8653 17.0746 12 17.0746C13.1347 17.0746 14.1944 17.4989 15.0016 18.2215C15.4109 18.0335 15.8016 17.8072 16.1686 17.546C15.9469 16.4861 16.1094 15.3569 16.6766 14.3746C17.2436 13.3925 18.1402 12.6871 19.1689 12.3492C19.1896 12.1262 19.2 11.9012 19.2 11.6746C19.2 11.4481 19.1896 11.2231 19.1689 11.0002C18.1402 10.6622 17.2436 9.95688 16.6766 8.97464C16.1094 7.99241 15.9469 6.8632 16.1686 5.80325C15.8016 5.54209 15.4109 5.31583 15.0016 5.12777C14.1944 5.8504 13.1347 6.27464 12 6.27464C10.8653 6.27464 9.80558 5.8504 8.9984 5.12777C8.58905 5.31583 8.19837 5.54209 7.83136 5.80325C8.05312 6.8632 7.89055 7.99241 7.32346 8.97464C6.75638 9.95688 5.85979 10.6622 4.83106 11.0002C4.81041 11.2231 4.8 11.4481 4.8 11.6746C4.8 11.9012 4.81041 12.1262 4.83106 12.3492C5.85979 12.6871 6.75638 13.3925 7.32346 14.3746ZM12 14.3746C10.5088 14.3746 9.3 13.1658 9.3 11.6746C9.3 10.1835 10.5088 8.97464 12 8.97464C13.4912 8.97464 14.7 10.1835 14.7 11.6746C14.7 13.1658 13.4912 14.3746 12 14.3746ZM12 12.5746C12.4971 12.5746 12.9 12.1717 12.9 11.6746C12.9 11.1776 12.4971 10.7746 12 10.7746C11.5029 10.7746 11.1 11.1776 11.1 11.6746C11.1 12.1717 11.5029 12.5746 12 12.5746Z" fill="#999999"/>
</svg>
