<svg width="17" height="18" viewBox="0 0 17 18" fill="none" xmlns="http://www.w3.org/2000/svg">
<path d="M12.75 4.24448H17V5.94448H15.3V16.9945C15.3 17.4639 14.9195 17.8445 14.45 17.8445H2.55C2.08056 17.8445 1.7 17.4639 1.7 16.9945V5.94448H0V4.24448H4.25V1.69448C4.25 1.22504 4.63056 0.844482 5.1 0.844482H11.9C12.3695 0.844482 12.75 1.22504 12.75 1.69448V4.24448ZM13.6 5.94448H3.4V16.1445H13.6V5.94448ZM9.70207 11.0442L11.2047 12.5469L10.0026 13.7489L8.5 12.2463L6.99737 13.7489L5.79532 12.5469L7.29793 11.0442L5.79532 9.54168L6.99737 8.33961L8.5 9.84216L10.0026 8.33961L11.2047 9.54168L9.70207 11.0442ZM5.95 2.54448V4.24448H11.05V2.54448H5.95Z" fill="black"/>
</svg>
