<svg width="24" height="24" viewBox="0 0 24 24" fill="none" xmlns="http://www.w3.org/2000/svg">
    <path d="M12.2867 11.9381C12.7724 11.5176 13.162 10.9976 13.429 10.4133C13.6961 9.82897 13.8343 9.19406 13.8343 8.55164C13.8343 7.34447 13.3547 6.18674 12.5011 5.33314C11.6475 4.47955 10.4898 4 9.28262 4C8.07545 4 6.91772 4.47955 6.06412 5.33314C5.21053 6.18674 4.73098 7.34447 4.73098 8.55164C4.73097 9.19406 4.86917 9.82897 5.13619 10.4133C5.40321 10.9976 5.79281 11.5176 6.27854 11.9381C5.00421 12.5151 3.92303 13.4469 3.16429 14.6222C2.40555 15.7974 2.00134 17.1663 2 18.5652C2 18.8067 2.09591 19.0382 2.26663 19.2089C2.43735 19.3797 2.66889 19.4756 2.91033 19.4756C3.15176 19.4756 3.38331 19.3797 3.55403 19.2089C3.72474 19.0382 3.82065 18.8067 3.82065 18.5652C3.82065 17.1166 4.39611 15.7274 5.42043 14.703C6.44474 13.6787 7.83401 13.1033 9.28262 13.1033C10.7312 13.1033 12.1205 13.6787 13.1448 14.703C14.1691 15.7274 14.7446 17.1166 14.7446 18.5652C14.7446 18.8067 14.8405 19.0382 15.0112 19.2089C15.1819 19.3797 15.4135 19.4756 15.6549 19.4756C15.8963 19.4756 16.1279 19.3797 16.2986 19.2089C16.4693 19.0382 16.5652 18.8067 16.5652 18.5652C16.5639 17.1663 16.1597 15.7974 15.4009 14.6222C14.6422 13.4469 13.561 12.5151 12.2867 11.9381ZM9.28262 11.2826C8.74248 11.2826 8.21447 11.1224 7.76536 10.8224C7.31626 10.5223 6.96622 10.0958 6.75952 9.59674C6.55282 9.09771 6.49873 8.54861 6.60411 8.01885C6.70949 7.48909 6.96959 7.00247 7.35152 6.62054C7.73346 6.23861 8.22007 5.97851 8.74983 5.87313C9.27959 5.76775 9.8287 5.82184 10.3277 6.02854C10.8267 6.23524 11.2533 6.58528 11.5533 7.03438C11.8534 7.48349 12.0136 8.0115 12.0136 8.55164C12.0136 9.27594 11.7259 9.97057 11.2137 10.4827C10.7016 10.9949 10.0069 11.2826 9.28262 11.2826ZM18.1492 11.5739C18.7318 10.9179 19.1123 10.1074 19.2451 9.24015C19.3778 8.37287 19.257 7.48571 18.8973 6.68546C18.5376 5.88522 17.9542 5.206 17.2175 4.72956C16.4807 4.25312 15.622 3.99977 14.7446 4C14.5031 4 14.2716 4.09591 14.1009 4.26663C13.9302 4.43735 13.8343 4.66889 13.8343 4.91033C13.8343 5.15176 13.9302 5.38331 14.1009 5.55403C14.2716 5.72474 14.5031 5.82065 14.7446 5.82065C15.4689 5.82065 16.1635 6.10838 16.6757 6.62054C17.1878 7.1327 17.4756 7.82733 17.4756 8.55164C17.4743 9.02978 17.3475 9.4992 17.1078 9.91296C16.8682 10.3267 16.5242 10.6703 16.1101 10.9094C15.9751 10.9872 15.8624 11.0984 15.7827 11.2323C15.703 11.3662 15.659 11.5183 15.6549 11.6741C15.6511 11.8286 15.6867 11.9816 15.7584 12.1185C15.83 12.2555 15.9354 12.372 16.0646 12.4569L16.4196 12.6936L16.5379 12.7573C17.6352 13.2778 18.561 14.101 19.2061 15.1299C19.8512 16.1589 20.1888 17.3508 20.1792 18.5652C20.1792 18.8067 20.2751 19.0382 20.4459 19.2089C20.6166 19.3797 20.8481 19.4756 21.0896 19.4756C21.331 19.4756 21.5625 19.3797 21.7333 19.2089C21.904 19.0382 21.9999 18.8067 21.9999 18.5652C22.0073 17.1683 21.6574 15.7926 20.9835 14.569C20.3095 13.3453 19.3339 12.3143 18.1492 11.5739Z" fill="black"/>
</svg>
