<svg width="24" height="24" viewBox="0 0 24 24" fill="none" xmlns="http://www.w3.org/2000/svg">
    <path d="M3 15.8776C3.04859 15.6623 3.08726 15.4441 3.14676 15.2318C3.59595 13.6355 5.05708 12.5103 6.71653 12.5034C8.99226 12.494 11.268 12.493 13.5437 12.5049C14.5522 12.5103 15.4213 12.8884 16.1407 13.5989C16.4184 13.8731 16.4362 14.2372 16.1908 14.4881C15.9503 14.7336 15.5825 14.7152 15.3023 14.4406C14.7966 13.9453 14.1888 13.692 13.4827 13.691C11.2442 13.6875 9.00565 13.6845 6.7671 13.6915C5.32333 13.6959 4.19587 14.8345 4.19042 16.2769C4.18745 16.9875 4.19042 17.6985 4.19042 18.4373C4.26975 18.4373 4.34065 18.4373 4.41204 18.4373C5.64907 18.4373 6.8856 18.4373 8.12263 18.4373C8.38243 18.4373 8.57529 18.5521 8.68586 18.7876C8.79097 19.0113 8.75329 19.2231 8.60058 19.4116C8.48555 19.5536 8.32987 19.6249 8.14642 19.6249C6.63125 19.6253 5.11608 19.6263 3.60141 19.6249C3.295 19.6249 3.12246 19.4358 3.00248 19.1805C3.00248 18.0795 3.00248 16.9786 3.00248 15.8776H3Z" fill="black"/>
    <path d="M10.4967 3C10.8368 3.08461 11.1889 3.13805 11.5151 3.25978C13.2246 3.89661 14.2257 5.54338 14.0581 7.40984C13.9074 9.09421 12.5355 10.55 10.8081 10.8592C8.27802 11.312 5.9656 9.20851 6.18226 6.65079C6.3434 4.75166 7.74553 3.28848 9.64941 3.03117C9.6851 3.02623 9.71981 3.01039 9.75501 3C10.0024 3 10.2493 3 10.4967 3ZM10.1269 9.72412C11.6574 9.72362 12.9029 8.47766 12.8969 6.95213C12.8915 5.43204 11.651 4.19202 10.1333 4.18905C8.60574 4.18608 7.35731 5.42858 7.35434 6.9551C7.35087 8.48063 8.59682 9.72511 10.1269 9.72412Z" fill="black"/>
    <path d="M14.3189 22.0011C14.0973 21.8972 13.9654 21.7141 13.8484 21.5053C13.4508 20.7937 13.0403 20.0886 12.6397 19.3785C12.5782 19.2697 12.5112 19.2217 12.3799 19.2241C11.8479 19.2326 11.3164 19.2291 10.7844 19.2271C10.3912 19.2256 10.122 18.9807 10.1245 18.6323C10.1269 18.2815 10.3942 18.04 10.7903 18.0391C11.4646 18.0366 12.1384 18.0415 12.8127 18.0371C13.1087 18.0351 13.3154 18.1588 13.4597 18.4181C13.7686 18.9738 14.0879 19.524 14.4191 20.1054C14.4662 20.0114 14.5024 19.9431 14.5346 19.8729C15.1192 18.6056 15.7017 17.3374 16.2873 16.0707C16.4499 15.7188 16.7533 15.5714 17.0682 15.7258C17.2114 15.796 17.3458 15.9361 17.4241 16.0776C18.1168 17.325 18.7985 18.5784 19.4753 19.8348C19.5536 19.9797 19.6374 20.0337 19.803 20.0297C20.3162 20.0173 21.8298 20.0243 22.343 20.0258C22.7292 20.0267 22.994 20.2618 22.9999 20.6042C23.0059 20.955 22.7371 21.2099 22.3474 21.2118C21.6672 21.2153 19.9869 21.2104 19.3067 21.2138C19.0102 21.2153 18.8059 21.0871 18.6651 20.8259C18.1163 19.8095 17.5605 18.7966 17.0072 17.7827C16.9754 17.7243 16.9412 17.6669 16.8971 17.5907C16.6016 18.2281 16.3155 18.8436 16.0309 19.4602C15.7151 20.144 15.3958 20.8264 15.0879 21.5142C14.9868 21.7393 14.8509 21.915 14.6144 22.0016H14.3175L14.3189 22.0011Z" fill="black"/>
    <path d="M3 15.8776C3.04859 15.6623 3.08726 15.4441 3.14676 15.2318C3.59595 13.6355 5.05708 12.5103 6.71653 12.5034C8.99226 12.494 11.268 12.493 13.5437 12.5049C14.5522 12.5103 15.4213 12.8884 16.1407 13.5989C16.4184 13.8731 16.4362 14.2372 16.1908 14.4881C15.9503 14.7336 15.5825 14.7152 15.3023 14.4406C14.7966 13.9453 14.1888 13.692 13.4827 13.691C11.2442 13.6875 9.00565 13.6845 6.7671 13.6915C5.32333 13.6959 4.19587 14.8345 4.19042 16.2769C4.18745 16.9875 4.19042 17.6985 4.19042 18.4373C4.26975 18.4373 4.34065 18.4373 4.41204 18.4373C5.64907 18.4373 6.8856 18.4373 8.12263 18.4373C8.38243 18.4373 8.57529 18.5521 8.68586 18.7876C8.79097 19.0113 8.75329 19.2231 8.60058 19.4116C8.48555 19.5536 8.32987 19.6249 8.14642 19.6249C6.63125 19.6253 5.11608 19.6263 3.60141 19.6249C3.295 19.6249 3.12246 19.4358 3.00248 19.1805C3.00248 18.0795 3.00248 16.9786 3.00248 15.8776H3Z" stroke="black" stroke-width="0.5"/>
    <path d="M10.4967 3C10.8368 3.08461 11.1889 3.13805 11.5151 3.25978C13.2246 3.89661 14.2257 5.54338 14.0581 7.40984C13.9074 9.09421 12.5355 10.55 10.8081 10.8592C8.27802 11.312 5.9656 9.20851 6.18226 6.65079C6.3434 4.75166 7.74553 3.28848 9.64941 3.03117C9.6851 3.02623 9.71981 3.01039 9.75501 3C10.0024 3 10.2493 3 10.4967 3ZM10.1269 9.72412C11.6574 9.72362 12.9029 8.47766 12.8969 6.95213C12.8915 5.43204 11.651 4.19202 10.1333 4.18905C8.60574 4.18608 7.35731 5.42858 7.35434 6.9551C7.35087 8.48063 8.59682 9.72511 10.1269 9.72412Z" stroke="black" stroke-width="0.5"/>
    <path d="M14.3189 22.0011C14.0973 21.8972 13.9654 21.7141 13.8484 21.5053C13.4508 20.7937 13.0403 20.0886 12.6397 19.3785C12.5782 19.2697 12.5112 19.2217 12.3799 19.2241C11.8479 19.2326 11.3164 19.2291 10.7844 19.2271C10.3912 19.2256 10.122 18.9807 10.1245 18.6323C10.1269 18.2815 10.3942 18.04 10.7903 18.0391C11.4646 18.0366 12.1384 18.0415 12.8127 18.0371C13.1087 18.0351 13.3154 18.1588 13.4597 18.4181C13.7686 18.9738 14.0879 19.524 14.4191 20.1054C14.4662 20.0114 14.5024 19.9431 14.5346 19.8729C15.1192 18.6056 15.7017 17.3374 16.2873 16.0707C16.4499 15.7188 16.7533 15.5714 17.0682 15.7258C17.2114 15.796 17.3458 15.9361 17.4241 16.0776C18.1168 17.325 18.7985 18.5784 19.4753 19.8348C19.5536 19.9797 19.6374 20.0337 19.803 20.0297C20.3162 20.0173 21.8298 20.0243 22.343 20.0258C22.7292 20.0267 22.994 20.2618 22.9999 20.6042C23.0059 20.955 22.7371 21.2099 22.3474 21.2118C21.6672 21.2153 19.9869 21.2104 19.3067 21.2138C19.0102 21.2153 18.8059 21.0871 18.6651 20.8259C18.1163 19.8095 17.5605 18.7966 17.0072 17.7827C16.9754 17.7243 16.9412 17.6669 16.8971 17.5907C16.6016 18.2281 16.3155 18.8436 16.0309 19.4602C15.7151 20.144 15.3958 20.8264 15.0879 21.5142C14.9868 21.7393 14.8509 21.915 14.6144 22.0016H14.3175L14.3189 22.0011Z" stroke="black" stroke-width="0.5"/>
</svg>
