<svg width="16" height="18" viewBox="0 0 16 18" fill="none" xmlns="http://www.w3.org/2000/svg">
<path d="M3.55542 3.55559V0.888899C3.55542 0.397978 3.9534 0 4.44432 0H15.1111C15.602 0 16 0.397978 16 0.888899V13.3335C16 13.8244 15.602 14.2224 15.1111 14.2224H12.4444V16.8883C12.4444 17.3797 12.0445 17.778 11.5495 17.778H0.894819C0.400529 17.778 0 17.3828 0 16.8883L0.0023111 4.44527C0.00239999 3.95392 0.402351 3.55559 0.897272 3.55559H3.55542ZM1.77995 5.33339L1.77797 16.0002H10.6666V5.33339H1.77995ZM5.33321 3.55559H12.4444V12.4446H14.2222V1.7778H5.33321V3.55559Z" fill="#3B1550"/>
</svg>
