<svg width="121" height="120" viewBox="0 0 121 120" fill="none" xmlns="http://www.w3.org/2000/svg">
<path fill-rule="evenodd" clip-rule="evenodd" d="M18.0739 14.0443C17.1424 12.2499 14.9327 11.5503 13.1382 12.4817C11.3438 13.4131 10.6442 15.6229 11.5756 17.4173L15.045 24.1014C15.9764 25.8958 18.1862 26.5954 19.9806 25.664C21.7751 24.7326 22.4747 22.5228 21.5433 20.7284L18.0739 14.0443ZM14.4185 14.9482C14.8507 14.7239 15.383 14.8924 15.6073 15.3246L19.0767 22.0086C19.3011 22.4409 19.1326 22.9731 18.7004 23.1975C18.2681 23.4218 17.7359 23.2533 17.5115 22.8211L14.0421 16.1371C13.8178 15.7048 13.9863 15.1726 14.4185 14.9482ZM27.2672 30.0215C22.6628 30.0215 18.9302 33.7541 18.9302 38.3585L18.9302 96.861C18.9302 101.465 22.6628 105.198 27.2672 105.198H82.8469C87.4513 105.198 91.1839 101.465 91.1839 96.861V87.8376C85.3694 84.4741 81.4575 78.1875 81.4575 70.9872C81.4575 63.7868 85.3694 57.5002 91.1839 54.1367V38.3585C91.1839 33.7541 87.4513 30.0215 82.8469 30.0215H77.1453V32.1293C77.1453 35.9662 74.0348 39.0767 70.1979 39.0767H42.6955C38.8585 39.0767 35.748 35.9662 35.748 32.1293V30.0215L27.2672 30.0215ZM93.9629 52.8116V38.3585C93.9629 32.2193 88.9861 27.2425 82.8469 27.2425L64.5829 27.2425C63.6393 23.6307 60.3542 20.9654 56.4467 20.9654C52.5391 20.9654 49.2541 23.6307 48.3104 27.2425H27.2672C21.128 27.2425 16.1513 32.2193 16.1513 38.3585L16.1513 96.861C16.1513 103 21.128 107.977 27.2672 107.977H82.8469C88.9861 107.977 93.9629 103 93.9629 96.861V89.1628C96.1205 89.988 98.4626 90.4401 100.91 90.4401C111.654 90.4401 120.363 81.7307 120.363 70.9872C120.363 60.2436 111.654 51.5343 100.91 51.5343C98.4626 51.5343 96.1205 51.9863 93.9629 52.8116ZM0.750643 24.9642C1.6549 23.1559 3.85385 22.423 5.66213 23.3273L12.3977 26.6955C14.206 27.5998 14.9388 29.7987 14.0346 31.607C13.1303 33.4153 10.9314 34.1482 9.12311 33.2439L2.38752 29.8757C0.57924 28.9714 -0.153615 26.7725 0.750643 24.9642ZM4.4192 25.8128C3.98364 25.595 3.45399 25.7716 3.23618 26.2071C3.01837 26.6427 3.19489 27.1723 3.63045 27.3901L10.366 30.7584C10.8016 30.9762 11.3312 30.7996 11.5491 30.3641C11.7669 29.9285 11.5903 29.3989 11.1548 29.1811L4.4192 25.8128ZM48.5886 57.9783C48.5886 56.0598 50.1439 54.5046 52.0623 54.5046L75.6837 54.5046C77.6022 54.5046 79.1575 56.0598 79.1575 57.9783C79.1575 59.8968 77.6022 61.452 75.6837 61.452L52.0623 61.452C50.1439 61.452 48.5886 59.8968 48.5886 57.9783ZM52.0623 70.7714C50.1439 70.7714 48.5886 72.3267 48.5886 74.2452C48.5886 76.1636 50.1439 77.7189 52.0623 77.7189H75.6837C77.6022 77.7189 79.1575 76.1636 79.1575 74.2452C79.1575 72.3267 77.6022 70.7714 75.6837 70.7714H52.0623ZM51.3676 74.2452C51.3676 73.8615 51.6786 73.5504 52.0623 73.5504H75.6837C76.0674 73.5504 76.3785 73.8615 76.3785 74.2452C76.3785 74.6289 76.0674 74.9399 75.6837 74.9399H52.0623C51.6786 74.9399 51.3676 74.6289 51.3676 74.2452ZM48.5886 91.2542C48.5886 89.3358 50.1439 87.7805 52.0623 87.7805H75.6837C77.6022 87.7805 79.1575 89.3358 79.1575 91.2542C79.1575 93.1727 77.6022 94.728 75.6837 94.728H52.0623C50.1439 94.728 48.5886 93.1727 48.5886 91.2542ZM52.0623 90.5595C51.6786 90.5595 51.3676 90.8705 51.3676 91.2542C51.3676 91.6379 51.6786 91.949 52.0623 91.949H75.6837C76.0674 91.949 76.3785 91.6379 76.3785 91.2542C76.3785 90.8705 76.0674 90.5595 75.6837 90.5595H52.0623ZM33.064 56.7326C33.064 54.4305 34.9303 52.5642 37.2325 52.5642H39.4365C41.7387 52.5642 43.605 54.4305 43.605 56.7326V58.9367C43.605 61.2389 41.7387 63.1052 39.4365 63.1052H37.2325C34.9303 63.1052 33.064 61.2389 33.064 58.9367V56.7326ZM37.2325 68.831C34.9303 68.831 33.064 70.6973 33.064 72.9995V75.2035C33.064 77.5057 34.9303 79.372 37.2325 79.372H39.4365C41.7387 79.372 43.605 77.5057 43.605 75.2035V72.9995C43.605 70.6973 41.7387 68.831 39.4365 68.831H37.2325ZM35.843 72.9995C35.843 72.2321 36.4651 71.61 37.2325 71.61H39.4365C40.2039 71.61 40.826 72.2321 40.826 72.9995V75.2035C40.826 75.9709 40.2039 76.593 39.4365 76.593H37.2325C36.4651 76.593 35.843 75.9709 35.843 75.2035V72.9995ZM33.064 90.0086C33.064 87.7064 34.9303 85.8401 37.2325 85.8401H39.4365C41.7387 85.8401 43.605 87.7064 43.605 90.0086V92.2126C43.605 94.5148 41.7387 96.3811 39.4365 96.3811H37.2325C34.9303 96.3811 33.064 94.5148 33.064 92.2126V90.0086ZM37.2325 88.6191C36.4651 88.6191 35.843 89.2412 35.843 90.0086V92.2126C35.843 92.98 36.4651 93.6021 37.2325 93.6021H39.4365C40.2039 93.6021 40.826 92.98 40.826 92.2126V90.0086C40.826 89.2412 40.2039 88.6191 39.4365 88.6191H37.2325ZM97.4366 61.9555C97.4366 60.037 98.9919 58.4817 100.91 58.4817C102.829 58.4817 104.384 60.037 104.384 61.9555V70.2924C104.384 72.2109 102.829 73.7662 100.91 73.7662C98.9919 73.7662 97.4366 72.2109 97.4366 70.2924V61.9555ZM100.91 83.4926C98.9919 83.4926 97.4366 81.9374 97.4366 80.0189C97.4366 78.1004 98.9919 76.5452 100.91 76.5452C102.829 76.5452 104.384 78.1004 104.384 80.0189C104.384 81.9374 102.829 83.4926 100.91 83.4926Z" fill="#CCCCCC"/>
<ellipse opacity="0.1" cx="60" cy="111.116" rx="60" ry="6" fill="#999999"/>
</svg>
